<?xml version="1.0" encoding="UTF-8"?>
<!-- Generator: Adobe Illustrator 19.2.1, SVG Export Plug-In . SVG Version: 6.00 Build 0)  -->
<!DOCTYPE svg PUBLIC "-//W3C//DTD SVG 1.1//EN" "http://www.w3.org/Graphics/SVG/1.1/DTD/svg11.dtd">
<svg version="1.1" id="Capa_1" xmlns="http://www.w3.org/2000/svg" xmlns:xlink="http://www.w3.org/1999/xlink" x="0px" y="0px" viewBox="0 0 428.5 353.8" style="enable-background:new 0 0 428.5 353.8;" xml:space="preserve">
<style type="text/css">
	.st0{fill:none;stroke:#000000;stroke-miterlimit:10;}
	.st1{fill:#F2E500;}
	.st2{fill:#F4971A;}
	.st3{fill:#EC671C;}
	.st4{fill:#E5231F;}
	.st5{fill:#CB1517;}
	.st6{stroke:#000000;stroke-miterlimit:10;}
	.st7{font-family:'PT Sans', sans-serif;}
	.st8{font-size:8px;}
	.st9{font-family:'PT Sans', sans-serif; font-weight:600;}
</style>
<path class="st0" d="M76.8,352.7c-1.1-1.7,1.5-3.3,2.3-5.1c0.5-1,0.4-2.2,0.5-3.3c0.4-3.6,2.6-6.6,4.3-9.8c1.8-3.5,2.9-7.5,3.2-11.5  c4.6-1.1,9.2-1.7,13.9-1.8c-0.2-2.3,2.9-3.8,5-2.9c2.1,0.9,3.2,3.3,3.5,5.6c0.3,2.3,0,4.6,0.3,6.9c2.3,2.3,4.7,4.7,7,7  c0.7,0.7,1.3,1.3,2,2.1c0.6,0.7,1.2,1.4,1.8,2.1c4,4.4,10,7,15.9,6.8c5.1-0.2,9.9-2.2,14.7-3.8c0.6-0.2,1.3-0.4,1.9-0.3  c0.7,0.1,1.3,0.7,1.9,0.9c2.3,0.9,4.6-1.5,7.1-1.4c1.9,0.1,3.5,1.6,5.3,2.4c5.4,2.3,11.6-2.9,17.2-1.3c2.3,0.7,4.1,2.3,6.2,3.4  c7.9,4.2,17.9-0.6,26.6,1.7c1,0.3,2.1,0.7,3.2,0.5c1.1-0.2,11.6-6.9,11.3-7.9"/>
<g id="zona1" class="st1" style="fill: rgb(242, 229, 0); cursor: pointer;">
		<path d="M255.7,36.9c-0.1-1.1,0.1-0.7,0-1.4c-0.1-1-0.1-1.9-0.5-1.9c-2,0-6.7,0-6.7,0s-1.3-1.9-3.8-1.9    c-0.3,0-1.4,1.2-1.4,1.9c0,0.2-0.6,0-1,0c0-1.3,0-2.6,0-3.8c-1.1,0-2.2,0-3.4,0c-0.1-1.2,0-2.9,0-2.9H237c0,0,0,1.9,0,3.4    c-0.5,0.4,0,0-0.5,0.5c-2.4,0.1-3.2,0.3-3.8-1.4c-0.6-1.2,2-5.1,2.9-6.7c0.6-1.7-3.7-2.7-4.3-1c-1.4,0-1.9,0.4-1.9-1.9    c-1.1,0-2.4,0.9-2.9,1c-1-1-1.3-2.4-1.4-4.3c-1,0-1.8,0-2.9,0c-0.4,0-7.8,5.7-10.1,4.3c-2.6,0-4.6,0-7.2,0    c-1.1-0.5-2.1-2.6-2.9-3.4c-0.6-0.6-3.9,0.8-3.8-1c-0.9,0-0.9-0.1-1,1.9c-1.3-0.9-2.1-2.5-2.9-3.8c-1.4-0.1-1.2,0.3-1.4,1    c-4.9-0.1-4.7-0.3-6.2,1.4c0,1.1-0.1,2.1,0.5,2.9c-2.2-0.1-1.2-1.3-2.4-1.9c-1.4,0-2.9,0-4.3,0c-1.9-0.5-3.2-1.7-5.8-1.9    c0,0.5,0,1,0,1.4c-1.4-0.4-1.8-0.8-2.9-1.4c-1.2-3.6,0.3-2.1,0.5-2.9c-0.2,0-0.3-0.5-0.5-0.5c-2-0.5-5.8,0.3-7.7,1.4    c-0.5-0.6-0.7-0.7,0-1.9c-7.3,0-6.2,2.5-8.6,2.9c-0.7,0.1-0.4-1.8-2.4-1.4c-0.3,0.1-1.6,0.9-1.9,1c-0.8,0.2-1,0.9-3.4,0    c-0.5-0.2-0.4,0.7-1.6,0.7c-0.6,0-1.5-0.7-2.2-0.7c-2.6-0.1-2.5,0.5-4.3,0.5c-6-2.4-8.7-3.2-11-3.8c-2.6-0.4-2.2,1.8-3.4,1.9    c-0.8-0.4-4.1-0.3-4.8-1s-1.4-1.9-1.4-1.9s-1.7,0-2.4,0.5c-1.2,0-1.2-1-1.9-1c-1.8,0.1-4.3,0.7-4.8,0.5c-4.3,0.1-3.4,0.1-5.8-4.3    c-1.2,0.1-1.8,0-2.9,0c-0.1,0.9,0,1.5,0.5,1.9c0.1,0.9-0.6,1.7-1,1.9c-2-0.3-1.7-2-2.9-2.4c-4.6,0.1-3.3,1-4.3,1    c-0.7-0.1-1.4-1.3-1.9-1.9c-2.5-0.6-1.7,3.2-6.2,0c-1.1,0.7-1.4,1.4-1.9,1.9c-1.9,0-2.1-0.8-2.9-1c-2.8-0.1-2.1,0.4-3.4,0.5    c-1.6-0.3-2-2.1-6.7-1.9c-0.9,0.3-1.1,1.3-2.4,1.4c-2.4-0.1-2.1-2-5.3,0c-1.4-0.6-5.2-7.2-5.8-7.2c-1.1,0-1.7-0.1-2.9,0    C53.6,0.5,52.3,4,51.8,4s-0.4-0.8-0.7-2c-0.2-0.7-2.3-0.2-2.6-0.4c-0.1-0.5,0.8-1,0.5-1.4s-1-0.1-2.4,0.5c0,0.9,0,1.4,0,1.4    s0,0.4-0.5,0.5c-3.2,0-3.4,0-3.4,0c-0.5-0.3-0.5-0.3-1-0.5c-0.7-0.5-1.4-1.2-1.9-1.9C38,1.3,37.4,1.9,36,3.1    c-0.6,0.4-0.3,1.6-0.5,2.4c-1.6,0-3.2,0-4.8,0c-0.2,1,0.3,2.1-0.5,1.9c0.2,0-0.1,0.3,0,1c0.1,1.2,0.1,1,2.4,1    c0,1.6,0.4,2.3,1.4,2.9c0,0.6-0.1,0.6-1.9,0.5c0,1,0,1.9,0,2.9c-1.3-0.6-1.9-2.4-1.9-2.4s-0.2-0.5-1-0.5s0.4,1.2,0,1.4    c-0.7,0-1.4-0.2-1.9,0c-0.1,0.5,0,0.8-1,1c-0.7-0.5-0.5-0.8,0-1.9c-2.4,0-8,5.6-10.6,1.9c-4.5,0-5.3,0.2-5.3,1    c0,0.8,1.9,1.6,1.9,2.4c0,0.1-3.2-0.4-3.8,0c-4.2,0.1-4.3,1.5-4.3,1.5s-0.2,1.2,1,1c-0.1,3.6-1.4,3-4.3,2.9c0.2,1.4-0.4,3.6,1,3.8    C2,29.4,0,28.7,0,31.2c0.6,0.7,1,0,1.4,0c0-0.5,0-1,0-1.4c1.3,0,3.2,0,3.8,0.5c0.3,1.3-0.2,4,0,6.2c0.5,0.2,1.3-0.3,1.4-1.4    c1.9,0,3.4,0.3,3.4-0.5c1.2,0,2,0.2,1.9,0c-0.9,2.7-2.7,4.2-5.8,4.8c-0.4,0.5-1,3.3-1,4.3c0.4,0.5,0.6,1.4,1.4,1.4s4-2.6,5.8-4.3    c0.6-0.9,1.6,0.9,1.9,1.9c0.7,1.4-1.2,6-2.4,7.2c-0.5,0.9-1.1-1.2-1.4-1.9c-1.1,0.1-1.2,0.1-1.9,0.4c1,1.7,2.2,1.2,2.9,3.4    c1.4-0.4,1.7-0.5,2.4-1.4c0.5,0,1,0,1.4,0c-0.3,1.4-0.6,2.5-1.4,3.4c-0.7,1.3-1.8,1.1-2.9,1.9c-0.2,0-0.3,0-0.5,0c0,0.3,0,0.6,0,1    c4.1,0,3.6,0.2,6.7-1.9c0.9-0.2,0.5,1.6,0,1.4c0.1,1.2-0.4,1.3-1.4,1.4c-0.7,0.4-5.1,3.2-7.2,4.8C8.7,64,8.8,65.6,9,67.2    c8.8-2.8,15.2-7.2,26.4-10.1c5.4-2.3,11.1-3.2,14.4-3.4c6.3,0,10.7-1.8,7.7-7.7c-1.5-2-4.4-3.8-7.2-6.7c-5.1-7.3-14.2-19.2,1-22.6    c5.4-1.3,9.3,2,12.5,3.4c8.5,3.6,17.4,6.6,26.4,9.1c6.8,1.9,13.2,2.7,20.6,3.4c5.1,1.3,16.6,3.9,25,5.8c7.1,0.5,10.7-0.6,16.3,0    c6.9,1.8,13.8,3.5,20.6,5.3c8.6,1.6,32.1,0,40.8-1.9c1.6,0,3.2,0,4.8,0c8.2-1.8,14.2-1.3,21.6-2.9c3.6-0.5,11.6,0,14.9-1.9    C255.1,36.9,255.4,36.9,255.7,36.9z"/>
		<path d="M334.4,97.8c-0.6,0.8,0,1,0,1.4c11.6-1.3,9.5-6.7,15.4-11c2-1.5,4.1-2.5,5.8-4.3c0.2,0,1.3-1,1.5-1    c-0.4-0.2-0.9-0.1-1.1,0C347.2,81.3,340.1,91.6,334.4,97.8z"/>
		<path d="M262.8,124.2c-5-1.1-6.3-6.2-13.9-6.3c-1,1-4,2.1-4.4,4c-1.1,5.4,2.4,8,4.4,13l0.2,0.6    c0.9,2.6-1.2,1.6-3.9,2.9c-1.3,1.7-0.3,3.3-0.1,5.9c0.7,0.7,0.8,1.5,1.4,2.4c0.7,0.8,2.1,1.2,2.9,1.9c1-0.2,1.9-0.3,2.9-0.5    c1-0.6,1.1-1.9,1.8-2.8c1.5-2.1,5-4.2,6.8-6.3c0.7-0.8,0.9-2.4,1.9-2.9c1.3-0.2,2.6-0.3,3.8-0.5c1.4-0.6,2.7-1.1,3.8-2.9    c0.3-0.8,0.1-0.5,0.5-1c0-1.4,0-2.5,0-3.9C268.3,124.9,265.7,124.9,262.8,124.2z"/>
		<path d="M230.3,121c-1.6,0-4.1,0-5.7,0c-2.9,3.2-5.4,4.9-7.3,8.7c-3.2,6.7,2.5,18.1,7.7,20.2    c6.5,5.2,14.4-6.3,12.5-14.4C235.7,127.7,233.5,125.5,230.3,121z"/>
</g>
<path id="zona2" class="st2" d="M296.4,43.1c0-2.6-0.1-6.8,0-7.2c1.4-0.1,3,0,4.3,0c2.4,1.4,6.2,1.8,6.7,1.9  c1.2,0.1,2.7,2.6,3.8,3.8c2.1,0.3,4.4-0.3,5.3,0c2.4,2.5,2,3.4,3.2,8.7c1.1,1.6,1.1,1.8,2.1,2.4c0.8-0.1,4.8-3.3,6.7-3.4  c3.3,0.7,6.5,2.9,11.5,2.9c3.3-0.1,4.6-2.2,6.7-2.4c1.3,0.1,4,3.4,6.2,3.8c2.4-1.2,4-1,5.3-0.5c1.4,0,1,3.2,0.9,5.7  c-0.1,2-0.3,4.7-0.4,6.4c-1.2,7.2-1.3,12.3-7.3,11.8c-2.7,0-5.3-3.9-6.1-6.7c-0.8-2.6,0-5.8-1.4-7.7c-4.4-3.3-10.4-1.3-14.5,0.2  c-3.1,1.2-6.4,3.4-9.5,4.6c-3.3,1.3-14.9,2.6-19.7,1.4c-9.5-2.2-16.8-5.6-25.9-7.7c-4.4-1-8.8-1.2-13-2.2c-1.1,0-2.2-0.2-3.3-0.2  c-3.2-1.1-6.6-4.1-10.6-4.8c-4.7-0.9-10.3-1.2-14.9-1.9c-6.5-1.1-22.8-1.8-27.8,0.5c-2.3,1.1-3.3,1.7-5.3,3.7c-0.4,0.9,0.8,3.9,1,5  c2.1,1.6,5.4,1.7,4.3,5.6c-1.3,3.2-2.2,3.4-6.6,4.7c-4.8,1.5-10,1.1-13.8,3.5c-2.8,1.7-6,4.9-7.8,7.6c-2.2,3.3-3.2,8-6.4,10.1  c-3.3,2.2-9,2.5-13.3,2.8c-3.7,0-7.4,0.9-11,0.9c-4.4,1-11.5,1.6-16.3-0.4c-2.6-1.1-4.1-3.4-5.9-5.3c-3.4-13.5,10.5-41.2,8.7-42.4  c-7.5-4.7-32.2-5-40.2-0.2c-5.1,3-4.8,10.3-8.5,11.7c-3.5,3.1-11.4,0.3-16.5,2.1c-2.1,0.7-4.6,3.3-6,5c-0.6,0.8-1.5,1.6-2.4,2.1  c-1.6,0.9-4.5,1.2-6.6,0.6c-3.4-1.1-5.4-5.5-10.2-4.4c-8.8,2.3-6.7,9.8-12.8,8.7c-0.5-0.3-0.6-1.4-1-1.9c1.8-2.8,4.4-5,4.3-6.7  c-0.4-0.5-0.3-0.9-0.5-1.9c-0.6,0-1.3,0-1.9,0c-0.4-0.5,0,0-0.5-0.5c0-0.5,0.3-1.2-0.5-1.4c-1.8,0.6-2.8,1.4-4.3,1.9  c-1.8,0-3,0-4.8,0c-1,0.8-1.6,2.2-3.7,2.8c-1,0.5-3,1.8-5.2,3.8c-0.9,0.3-1.7,0-2.9,0.1c0-1,0.1-1.9,0.1-2.9  C22.5,61,36,53.1,55.6,52.6c1.3-2,2.3-1.9,2.4-5.5c-5.6-5.8-15-13.9-15.8-24c2.1-3.6,6.2-9,13.9-6.7c6.4,1.9,13.7,5.4,19.9,7.9  c5.2,2.2,10.1,2.7,15.6,4.5c5.6,1.8,11.9,1.5,18.5,3.2c8.6,1.7,17,3.8,25.4,5.7c6.1,1.1,10.8-1,16.3,0.2c8.2,1.8,15.6,4.2,24.3,5.7  c6.4,1.1,22.7-0.3,27.9-1.3c4.6-0.6,9.2-1.2,13.9-1c11.3-2.6,26.4-3.4,37.9-4.9c1.4,1.2,3.5,4,5.3,4c1.1-0.3,2.6-0.7,4.7-0.8  c0.5-0.9,2-1.3,2.9-1.5c1.4,0.4,5.7,3.9,7.8,5.6c1.3,0,4.9-2,6.7-1.9c0.7,0.9,2.3,1.5,2.4,1.9c1.8,0.1,1.3-1.7,1.9-1.9  c0,0,1.6-0.2,3,0.8C292.9,42.9,295.9,43.1,296.4,43.1z" style="fill: rgb(244, 151, 26); cursor: pointer;"/>
<g id="zona3" class="st3" style="fill: rgb(236, 103, 28); cursor: pointer;">
	<path d="M373.2,55c1.1-0.2,1.2-0.2,1.9-0.5c0.4-0.9,2.2-2.5,1-3.4c-1.7-1-2.4,0.6-3.8,1.4c-0.1-1.7-0.4-3.8-0.5-4.8   c-1,0.4-1.7,0.5-3.8-1c-3.3-0.9-7.1,2.2-9.6,2.9c0.8,12.5-0.6,23.3-3.9,26.9c-1.6-0.2-1.9-0.8-3-0.1c-5.3-0.9-6.4-7.9-7-13.8   c-7.1-5.3-17.6,1.1-25,4.8c-5.8,1.4-11.5,1.7-19.2,0.9c-6.4-1.5-11.2-2.8-16.3-4.7c-6.2-2.3-12.9-3.4-19.3-4.6   c-2.1-0.2-4.6-0.5-6.7-0.6c-1.7-1.1-4.1-2.9-8.6-4.4c-4.7-0.9-8.6-1.2-13-1.9c-25-3.5-36.4-0.7-38,5.3c0.1,3.6,3,5.9,5.8,6.7   c0.2,1.6,0.6,1.9,0,2.9c-2.3,6.1-13.6,4.3-19.2,7.2c-3.3,1.8-7.5,5.5-9.6,8.6s-2.7,7.1-5.8,9.1c-7.8,5.1-16,2.8-26.4,4.3   c-10,2.1-16.3-0.4-18.8-5.7c-2.5-5.3,0.6-10.6,2.5-13.5c3-6.3,11.6-18.8,10.1-24.5c-1.5-3.4-3.6-4.4-6.7-5.8   c-8.1-3.5-33.4-3.8-38.4,1c-5.7,3.1-5,6.6-7.7,11.5c-2.2,1.1-2,1-5.3,1.9c-3.8,0.2-7.6-0.2-12,0.5c-5.2,1.5-7.8,8.3-12,8.2   c-6.7,0-5.9-4.3-11-5.3C35,64,33.1,72.9,31.4,73.6c-0.6,0.1-1.4,0-2.4,0c0,0.3,0.5,0.6,0.5,1c1.8,0,3.3,0,4.3,0   c1.5-0.5,2.5-2,3.4-3.4c0.3,0,0.6,0,1,0c0.3,1,0.5,2.2,0.5,3.4c2,0.1,2-2,6.2-0.5c0.3,0.5,0.6,1,1,1.4c2.4,0.9,3-1.6,5.3-1   c0.3,0.1,1.6,1.4,1.9,1.4c1.9,0.4,3.4-1.2,5.3-1.4c0-1,0.5-2.4,0.5-3.4c0.9-0.5,2.1-0.7,2.9-1.4c0.4,0.1,0.9,1.2,1.4,1.4   c1.6,0.6,1.4-0.5,1.4-0.5s1.7-0.1,2.4,0c0.5,0.1,0.4,0.8,1,1c0.9-0.1,1.9-0.9,2.4-1.4c0.3,0.1,2.6,1.4,2.9,1.4   c2.3,0.9,0.8-1.1,2.9-1c1.2,0.6,1.9,1.3,2.4,1.9c-0.3,1.2-0.4,1-0.9,2.4c0.5,1.4,1.3,2.1,2.4,2.9c-0.5,1.8-1.4,3.2-1.4,4.3   c0,0.3,0.5,1.4,0.5,1.4s2.5,0,3.8,0c5.3-0.1,4.8,1,5.8,2.9c0.1,2.3-0.5,4.3-1.4,5.8c-0.5,0-1,0-1.4,0c-0.2,1.1-0.4,1.8-1.9,2.4   c0,1,0,1.1,0,1.9c-0.6,0.1-1.1,0.1-2.4,0c-0.1,1.1-0.2,1.9-0.5,1.9c-0.8-0.3-0.5,0-1.4,0c-1.3,0.4-3.4,1.8-4.3,2.4   c-1.7,1.3-2.4,3.6-4.3,4.8c0,1.1,0,2.2,0,3.4c-1.4,0.2-2.9,0.3-4.3,0.5c-0.4,2.9,1.4,1.2,1.9,4.3c0.8,1.4,0.1,3.2,0,3.8   c-0.5,2.5,0,5.9,1,5.8c-0.3,5.5-1.3,1.8-1,5.8c2,5.5,29.8,6.2,38.4,4.3c6.4-1.4,10.7-6.2,18.7-8.2c6.3-1.1,18.9,0.8,26.4-1   c10-3.4,22-13.8,35.9-10.2c10.5,2.7,12.2,12.2,11.9,24.8c0.1,4,1.8,10.6,5,14c4.8,7.1,12.2,7.9,20.3,10.6c4.9,2.4,7.9,3.2,11.5,5.5   c3.4,2.7,4.4,5.8,9.1,5.8c3.9,0,9-6,13.4-12c8.7-8.9,18.9-18.9,33.3-32.9c4.9-5,10.7-16,8.2-20.1c-6.9-4.2-6.1,2.8-16.9,1.7   c-9-1.6-28-9.9-31.3-18.9c-1-5.4,2.5-10.1,3.5-10.4c11.4-2.7,14,1.3,19.6,3.8c5.1,1.1,10.2,2.2,15.4,3.4c3.1,0.9,7.6,2.2,12.5,1.9   c6.3-0.4,11.2-4.4,16.3-7.7c1.7-1.1,5.2-3.3,7.7-1.9c0.3,0,1.3,0.4,0.8,2.9c-1.3,7.7-5.7,9.7-8.7,13.2c-1.6,2.2-2.1,2.9-4.3,6.5   c0,0.5-2.2,2.1-2.2,2.6c1.7,0.6,1.9,0.1,3.2-0.6c1-0.1,2.1-0.3,3.8-1c2.2-1.1,2.3-2.5,4.3-3.4c1.8-0.3,3.5-1.1,5.3-1.4   c0.5-0.3,0.6-1.7,1-1.9c1.1,0,2.2,0,3.4,0c1-0.7,3.1-3.6,3.9-4.7c2.6-2.4,3.6-4.1,6.2-6.5c2.3-1.7,5.8-3.8,8.7-4.6   c1.4,0,2.9,0,4.3,0c4.3-1.7,15.8-11.3,16.8-13c0.6-1.1,0.3-2.1,1-2.9c0.1-1.6,0.7-1.4-0.7-2.7c0.2-2.4-1-3.5-1.2-4   c-1.1-0.8-3,0.3-2.9-0.5s0.6-4.3,1.4-5.8C372.1,53.7,372.5,54.1,373.2,55z M225,149.8c-4.9-1.7-10.5-12.8-7.7-20.2   c1.3-3.4,4.7-5.5,6.7-8.2c1-0.2,0.9-0.1,1.4-0.5c1.6,0,3.2,0,4.8,0c3.2,4.4,5.4,6.7,7.2,14.4C239.2,142.7,231.8,155.2,225,149.8z    M261,123.9c1.7,1,3.8,0.6,5.8,1.4c1.5,0.6,3,2,4.3,2.9c0,1.5,0.1,3-0.5,3.8c-1.6,4.4-4,2.5-7.7,4.3c-1.7,0.8-9.7,10.2-11.6,12.3   c-3.3-0.2-5.1-1.4-5.9-4c-1.1-2.1-0.9-3.9-0.3-5.8c1.4-0.5,3.2-0.9,4.3-1.4c-0.5-5.2-6.6-10.1-4.8-15.4c0.6-1.6,3.1-2.7,4.3-3.8   C254.9,118.3,257.2,121.7,261,123.9z"/>
	<path d="M153.9,162.1c-2.4-0.8-4.9-0.9-6.7-1c-3.2,0-6,0.6-8.2,0c-5.1,1.3-8.2,1.1-13.6,2c-4.1,0-4.1,0.9-5.6,3.3   c-0.2,3,0.1,2.8,1,3.4c7.9,1.7,16,1.9,21.5,5.9c6.5,4.6,10.4,16.2,20.3,13.8c1.8-1.8,4.4-2.5,5.3-5.8   C171.7,169.1,160.9,164.5,153.9,162.1z"/>
</g>
<g id="zona4" class="st4" style="fill: rgb(229, 35, 31); cursor: pointer;">
	<path d="M417.9,141.5c0.3,1.7,1,2.8,0.5,3.8c-0.8,0.9-0.7,0.8-2.4,1c-3.3-2.6-7.8-1.9-11-1c0-0.8,0-1.6,0-2.4   c-0.6,0-1.3,0-1.9,0c-0.2-0.3-0.3-0.6-0.5-1c3-1.3,6.6-2.7,9.6-3.8C412.4,139,415.7,141.3,417.9,141.5z"/>
	<path d="M381.5,152c0,0.8,0,1.6,0,2.4c1.3,0.7,2,1,4.3,1c0.9-0.9,2.6-1.9,2.9-1.9c1.5,0.8,2.5,1.2,2.9,3.4   c-2,3-2.4,7.2-3.8,10.6c-1.4,3.1-4,5.3-5.8,8.2c-2.4-1.1-3.3-1.9-4.3-4.3c-1.6,0.8-2.2,1.6-4.3,1.9c-1-2.5-2.6-1.7-2.9-5.3   c0.4-0.5,0.2-0.1,0.5-1c-1.4-0.9-2.1-1.9-2.9-3.4c-0.8,0.3-0.5,0.1-1,0.5c-0.4,0.5-0.3,0.5-0.5,1.4c-0.8,0.2-1.6,0.3-2.4,0.5   c0,1,0,1.9,0,2.9c-0.6,0-1.3,0-1.9,0c0.3-1.2,0.3-1.2,0-2.4c-0.8,0.2-1.6,0.3-2.4,0.5c-0.7-1.2-1.1-1.1-1.4-2.9   c2.1-1.6,4.2-3.2,6.2-4.8c1.2-1.7,1.2-3.6,2.9-4.8c1.8-1.3,3.4-0.8,5.8-1.9c3.3-1.5,5.5-5,9.6-5.8c0,0.2,0,0.3,0,0.5   c-1.2,0.7-3.2,2.1-3.8,3.4c0.4,0.4,0.6,0.8,1,1.4c1.7-0.4,2.6-1.2,3.8-1.9c0,0.5,0,1,0,1.4C383.1,151.8,382.7,151.9,381.5,152z"/>
	<path d="M327.7,80.5c-10.1,0.5-17.5,10.8-25.9,10.6c-5.9-0.2-11.9-2.4-16.8-3.8c-3-0.6-6.1-1.3-9.1-1.9   c-8.4-3.5-12.6-9.3-22.6-1.9c-0.6,2.4-2.8,5.3-1.9,8.6c2.4,9.4,14.9,15,23,18.7c5.2,2.4,16.4,3,20.6-1c3,0,3.7,0.4,5.3,1.4   c-0.2,15.2-15,24.8-24,31.7c-2.5,1.9-4.8,5.6-6.7,8.2c-1.4,1.3-2.9,2.6-4.3,3.8c-5.2,6.9-11.1,13.2-17.3,19.2   c-7.9,0-8.2-4.5-13-7.2c-11.9-6.6-28-7.2-33.1-20.6c-1-2.7-2.3-7.2-1.4-11c0.3-1.2,1-4.3,0.5-6.2c-2.1-8.4-4.7-13.7-13-15.8   c-13.6-3.5-27.1,7.9-35.5,10.6c-7.5,2.3-16.6-1-25,1c-10.5,1.5-13.6,7.7-20.2,8.2c-9.6,0.9-33.2,1.1-37.4-2.9c-0.4,0.2-0.4,0-1,0   c0,2.2-1.2,1.6-1.4,3.4c0,0.7,0.4,1,1,1.4c0,1.1,0,1.8,0,2.9c-1.5,2.4-5,3.8-6.2,3.8c-0.1,0.5-0.1,1.5,0,2.4c1.7,0.3,1,4,1.9,4.3   c0.1,1-0.1,5.4,0,6.7c0.2,1.3,0.9,2.4,1.9,2.4c1.7,0,5.5-1.6,8.6-2.4c6.9-1.7,14.4-2.5,21.1-4.3c7.2-1.9,13.6,0.4,13.4,2.4   c-0.4,2.7-6.2,4.5-8.1,5.3c-2.9,1.4-7,7.7-7.6,11.2c-0.2,1.1-0.7,5.7,2.2,8.5c4.9,4.3,12.7,2.9,24,6.2c6.6,1.9,14.3,6.8,15.4,7.7   c1,0.9,2.1,2.4,2.4,3.8s-0.6,5.3-1.8,6.7c-7.1,9.1-27.5,2.9-38.6,4.4c-8.8,1.9-17.8,2.5-24.9,6.3c-4.4,2.3-11.6,7.1-12.6,8.1   c0,0.4,0,0.9,0,1.4c-0.6,0.1-0.5,2.3-0.5,2.9c0.8,1.4,1.2,1.6,1.4,2.4c-1.2,2.3-2.5,2.6-6.2,2.4c1.1,5.1,1.1,5.6,3.4,9.1   c2.8,2.7,5.5,3.9,12,3.8c8-0.1,15.4-1.8,22.6-4.8c3.1-1.3,5.9-3.5,13-3.5c12.8,2.5,10.6,8.8,19.3,8.8c6.9,0.2,11.1-2.3,12.6-3.1   c1.5-0.8,7.3-4.3,9.1-5.9c1.9-0.5,7.3-4.3,11.8-6.4c4.7-2.9,13.9-8.3,13.9-8.3s6.2-4.3,8.2-6.1c2.2-1.1,4.3-0.2,7.1-0.4   c0.5,0.6,2.1-0.3,2.9,4.6c-3.1,11.4-7.4,13.5-5.2,22.2c3.7,4.4,5.9,2.3,11.2,2.1c4.5-0.5,5.8,2.8,5.8,2.8s1.6,7.6,8.5,7.9   c8.3,0.1,14.2-16.3,11.5-27.9c-0.7-3.1-2-6.2-4.3-9.6c-0.9-1.1-1.3-1-1.9-1.4c0-1.1,0-2.2,0-3.4c-0.8-3.8-1.3-5.7-4.3-9.1   c-5.9-4.4-23.9-13.6-15.4-22.1c1-1,2.6-2.6,3.8-3.4c3.7-2.4,10.2-1.4,13.9,0c3.3,1.2,6.1,1.9,8.8,3.7c1.4,1.6,2.8,2.9,4.2,4.5   c2.8,2.1,6.2,5,9,6.7c4.9,3,11.2,2.6,14.5,7.2c2.8,3.8,1.4,13.9,3.8,15.8c3,2.4,13.4,2.9,17.8,1c2.6-1.2,5.9-3.1,7.7-4.3   c0.7-0.2,2,0.1,2.9,0c-0.1-1.1-0.2-1.9,0-2.9c1.8-1.6,3.9-0.7,4.3-3.4c1.7-0.1,2.5-1.2,3.4-1.4c0.3-1-1.1-0.8-1.4-1.4   c0.1-1.1,0.2-1.8-0.5-1.9c-1.9-0.6-3.8-1.3-5.3-2.4c-1-0.9-1.6-2.3-2.4-3.4c-1.3-1.8-3.3-4.3-4.3-6.2c-1.6-4-3.3-8.5-4.3-12.5   c0.6-3.4,1.5-8.4,3.8-13c1-1.9,3.2-3.9,4.3-5.8c1.2-1.9,1.5-6.4,1.4-7.2c0.6-1,1.7-0.3,2.4-1c4.5-7,9.7-16.2,13.9-23   c2,0.3,2.5-0.6,4.8-0.5c-0.2,1-0.1,0.9-0.5,1.4c-0.6,1.7-0.7,1.8-2.9,1.9c0.2,0.3,0.3,0.6,0.5,1c0.8-0.1,1.3,0,1.9,0   c1.2-1.1,2.3-3.2,2.4-4.8c0.9-0.4,2-1.3,1.9-1.9c-1.3-1.1-2.6-3.2-3.8-4.3c0.9-1.9,5.4-8.9,6.7-10.1c1.4-1.3,3.5-1,5.3-1.9   c1.9-1,3.1-4.5,4.3-6.2c4.1-5.5,10.6-8.2,10.6-17.8C328.6,81.9,328.1,81.2,327.7,80.5z M162.6,189c-1.6,1.2-2.9,0.6-5.3,0.5   c-1.6-1.6-3.7-2.7-5.3-4.3c-4.3-4.3-7.9-9.4-13.9-12c-5.1-2.2-13.5-1.7-18.2-4.3c0.2-3.1,1.2-3.5,2.4-5.3c4.8,0,14.5-0.9,16.8-2.4   c2.3,0.7,7.8-0.3,10.1,0c6.6,0.8,14.8,5.3,17.8,10.1C170.6,177.2,167.8,187.2,162.6,189z"/>
	<path d="M378.6,180.3c0.1,0.9-0.1,1.7,0,2.9c-0.2,0-0.3,0-0.5,0c0,0.2,0,0.3,0,0.5c-0.6,0-0.8,0.2-1,0   c-0.6-0.5-0.7-1.8-1-2.4C377.3,181.2,378.1,181.5,378.6,180.3z"/>
	<path d="M334.9,186.1c0.3,1.7,0.5,1.5,1,2.9c-3,2.3-3.7,5.4-6.7,7.2c-1.7-2.4-3.9,0.6-5.3-2.9c0.6-1,0.2-1.1,0-2.4   c0.2,0,0.3,0,0.5,0c0.7,1,0.6,1,1.9,1.4c0.5-0.8,0.6-0.8,1-1.9c-0.9-0.9-0.9-0.4-0.5-1.4c0.4-1.3,0.5-1.2,1.4-1.9   C329.6,185.9,332.3,186,334.9,186.1z"/>
	<path d="M330.1,201c2.3,0.2,3.7,1.1,5.8,1.9c0,0.3,0,0.6,0,1c-0.8,0-1.6,0-2.4,0c-1.4-1.5-1.6-0.6-3.4,0   C330.1,202.9,330.1,201.9,330.1,201z"/>
	<path d="M249.5,230.7c4.5,0,9.4,0,13.9,0c0,0.2,0,1.3,0,1.4c0.2,0,0.3,0,0.5,0c0.2,0.8-0.2,0.6,0,1.4   c-1.7,0.5-3.7,2.3-4.3,3.8c0,1,0,1.9,0,2.9c-0.5,1.4-2.5,0.9-2.4,1.9c-0.1,0.7,0,1.9,0,2.9c0.4,0.5,0.7,0.6,1,1.4   c1.1,0.6,1.3,0.8,2.4,1.4c0-1.3,0-2,0-2.9c0.2,0.2,0.8-0.1,1,0c0.6,1,0.8,1.1,1.4,1.4c0,0.3,0,1,0,1s-3.7,2.8-7.2,2.4   c-0.7-0.1-0.5-0.8-1-1.4c-0.4,0.2-1-0.2-1.4,0c-2.3,0.9-4.3,2.6-4.3,2.6s-10.9-6.9-9.1-13.6c0.1-1.7,1-4.8,1.9-5.5   C243.6,230.9,247.5,231.9,249.5,230.7z"/>
	<path d="M141,285c-0.1-1.1,0.2-1.3-0.5-1.9c-2,0-2,1.6-3.5,4.4c-0.4,1.3-3.1,4.5-6.1,7.1c-1.2,0.4-3.2,0-4.8,0   c-3.6-3.3-12.3,3.2-14.4,6.2c-3.2,3.7-2.3,5.9-2.4,7.2c-0.7-1-1.6-2-2.9-2.4c-0.6,0.9-1.1,1.3-1.9,1.9c0.2,1.3,1,1.7,1,2.4   c-2.5,1.8-5,3-6.2,3.4c-0.7-0.8-2.6-2-4.3-2.9c-1.3-0.2-1.8,0-2.4-0.5c-0.9-1.1-2.4-3.2-3.4-4.3c-1,0-2.9-0.5-3.8-0.5   c0.1-1.5-0.3-2-1-2.9c-0.5-0.7-1.8-1.3-2.4-1.9c-2.1-2.3-4.1-9-4.3-8.2c-1.1-0.1,3-0.5,2.4-0.5c0-0.7-0.1-2.5,0.5-2.9   c2.8-1.6,6.5-3.6,9.6-4.8c1.8-0.3,3.5-0.6,5.3-1c2-1,3.5-3.9,5.3-5.3c3.6-2.7,6.9-5.1,10.6-7.7c0.7-0.5,1.6-2.1,2.4-2.4   c5,0,9.9,0,14.9,0c1.3-0.8,4.4-0.9,6.2-1c1-3.2,3.7-5.1,5.3-7.7c5-7.8,17.2-25.4,31.2-20.2c11,4.3,10.7,14,17.8,16.8   c3.1,1.1,7.5,0.2,10.6,0c2.8,2.2,4,3.2,5.3,5.8c2.6,11.4-12,17.5-20.1,19.1c-2.4,0.2-4.4,0.7-6.8,0.9c-1.9,0.9-6.2,2-9.1,3.1   c-1.6,1-1.9,2.4-1.9,2.4c-0.2,0-1.8-0.4-1.9-0.4c0,0-0.2-1.1-10.1-1c-0.5-0.1-2.5-1.3-2.9-1.4C147.9,285.1,145.2,285,141,285z"/>
	<path d="M257,241.6c0.5,0,2.1-1.2,2.5-1.2c0,0.3,0,2.6,0,2.9c0.6,1,1.5,3.6,1.3,4.9c-0.3,0-1.7-0.6-2-0.6   c0-0.2-0.6-0.7-0.6-0.9C256.4,249.3,257,242.9,257,241.6z"/>
</g>
<g id="zona5" class="st5" style="fill: rgb(203, 21, 23); cursor: pointer;">
	<path d="M98.8,150c11.8-1.3,10.7,3.9,10.5,3.9c-2.4,2.8-6.9,3.6-9.1,5.8c-2.3,2.2-4.6,5.8-4.8,6.2   c-1.3,2.9-2.5,6.1-1,9.6c2.8,6.4,12.3,5.4,19.9,7.1c7.7,1.8,15.5,4.8,20.9,9.2c1.9,1.5,2.1,2.7,2.4,3.8c0.4,2.6,0.3,3.8-0.5,6.7   c-3.5,3.7-6.2,4.5-11.5,5.8c-9.5,0-18.8-0.2-28.3-0.5c-8.8,2-17.2,2.6-24.5,5.8c-2,0.9-4,2.8-5.8,3.8c-2.6,1.5-7.1,2.8-7.3,4.5   c-2-1-2.3-1.4-3.5-2c-0.8-0.1-1.7-0.7-2.4-1c-0.9-1-2.8-4.8-3.6-6.9c-0.7-1.5-0.6-6.5,0-8.2c1.4-2.6,5-5,6.7-6.7   c0,0,0.4-1.5,0.5-3.4c1.2-1.5,2.5-3.1,2.4-6.7c-0.3-1.6-1.8-1.3-3.4-2.4c-3.5-2.5-3.8-7.2-3.8-7.2s-1.6-1.3-2.4-1.9   c-0.1-0.6,0.7-1.1,0.5-4.3c-1.5-2.9-4.8-5.8-6.2-8.2c3,0,7,0,10.1,0c0.5,0.3,3.8-0.2,4.8-1c1.7-2.7,0.8-6.2,4.8-6.7   c1.2,2.2,0.8,1.6,3.3,1.7c3.7-2.2,19.9-4.5,25.9-6C95.4,150.6,94,150.8,98.8,150z"/>
	<path d="M216.3,285c-0.7-0.5-2.6,0.2-3.4,0c-1.7-1.2-2.3-2-4.8-3.8c-0.8-0.3-6.9,0-9.6,0c-1.3,2.6-2.4,4.8-3.4,6.7   c-0.4-0.2-1.3,0.3-1.9,0c-0.4-0.2-1-0.4-1.4-0.5c-0.7-0.2-0.6,0.6-1.4,0.5c-0.8-0.1-1.8-1.8-2.4-2.4c-4.4,0.2-9.7,0.4-13.4,0.5   c0,0.5,0,1.4,0,1.9c-5.1-0.4-4.4-0.8-8.2-1.4c1.3-2.9,8.8-5.3,12.2-6.2c1.8,0,2.8,0,4.6,0c8.3-1.5,21.1-5.2,21.8-15.9   c-0.4-2.1-0.8-3.6-1.7-4.8c-1-1.3-2.2-2.6-4.3-3.8c-17.1,3.3-14.1-7.3-23-13.9c-2.2-1.5-7.9-4.8-13.4-3.4c-8.1,2.1-15,11.4-19.9,17   c-4,4.6-6.6,12.4-10.2,11.8c-3.7,0.7-13.3,0.5-18.5,0.4c-3,2.7-9.1,6.9-12.5,10.1c-1.8,1.4-3.1,3.6-5,4.8   c-4.5,2.9-12.1,2.7-16.3,6.7c-2.9-1-0.5-1.8-5.6-1.4c0.1-3-3.1-1.5-0.5-4.8c1.4-0.9,3.7-0.9,4.3-1.9c-2.8-0.2-3.9-4.5-6.2-6.2   c-7.3-5.7-10-7.1-13.4-9.1c-0.4-1-0.3-1.9-0.5-2.9c-0.8-0.6-1.6-0.1-2.4-0.5c-0.4,1.6,0.1,1.3,0,2.4c-1.3-1.2-5-2.8-7.2-3.4   c0.5,1.2,0.9,1.2,1.4,2.4c-2.1-0.5-6.1-1.4-8.2-1.9c0-4.9-0.6-9.8-1.4-13.9c1.6-5.1,9.6-13.9,9.6-13.9s-0.8-1.7-0.5-2.4   c0.4-1.7,3.2,0,4.8-1.4c3.7,24.5,38.1,7.2,47.2,3.7c7.8-1.6,15.8,5.8,19.5,9c11.9,1,16.5-4.2,24.5-9.3c16-6.6,19.2-9.9,26.2-14.6   c10.3-9.1,15.9-7.5,18-4.7c2.2,4.4,0.6,7.1-0.5,9.7c-1,3.8-4.4,5.5-4,14.7c0.7,1.2,1.3,2.7,4,3.5c2,0.1,3.8-1.7,9.1-1   c2.3,0.7,3.9,3.3,3.8,4.3c1.1,1.5,1.3,6,7.7,7.2c6.8,0.7,14-13.1,12.3-24.8c-0.3-2.4-1.2-5.9-4.2-11.2c-0.4-0.7-1.6-1.6-2.4-2.4   c0-1.3-0.2-3-0.2-4.3c-0.8-4.3-3.6-7.8-5.9-9.6c-11.4-5.3-17.3-13.6-16-17.9c1.4-2.5,4.4-6.2,9.6-7.7c5.4-0.6,9.6,1.1,12.8,1.9   c7.3,1.8,8,4.2,11.7,7.7c0.8,1,4.6,3.4,5.8,4.3c3.8,3.7,13.3,3.1,18.1,10.7c3,4.1-0.6,10.6,3,14c6.6,5,18.8,1.3,18.8,1.3   s-1.4,3.3-1.9,3.3c-1.6,0.1-2.2,0-3.4,0c-0.4,1.6-0.5,5-0.5,6.2c-1.8,0.4-2.7,1-3.4,1.9c-0.7,0.9-1.7,1.6-1.4,3.4   c0,0.3,0.5,0.6,0.5,1c-3.8,0-10.1,0-13.9,0c-0.1,1.4-2.6,0.1-6.7,1c-0.4,0.4-3.2,1.7-2.4,9.5c0.3,2.7,10.2,8.9,9.6,11.1   c-0.3,0-0.6,0-1,0c-2.2-1.7-1-2.3-4.8-2.4c-1.6-0.1-4,1.9-5.8,3.4c-0.5,0.7-0.8,1.9-1.4,2.4c-1.6,0.5-3.2,1.4-4.8,1.9   c-0.4,0.3-7.9,8.2-8.2,8.6c-1.1,0.9-0.4,7.5-1.4,7.7c-1.1,2-3.5,3.9-4.8,5.8C217.4,281.3,217,282.8,216.3,285z"/>
	<path d="M416,277.8c0.6,0,1.2-0.1,1.4,0c0.1,0.1,0.2,0.3,0,0.5c-0.7,0.1-1.4,0-1.4,0S416,278,416,277.8z"/>
	<path d="M416.5,283.1c0.4,0,0.7,0,1,0c0,0.4-0.1,0.5,0.5,0.5c0.1,0.2,0,0.9,0,1.4c-1.1,0-1,0.3-1,0.5   c-0.3,0.1-0.6-0.1-1,0c0-0.3,0-0.6,0-1C416.8,284.6,416.4,284,416.5,283.1z"/>
	<path d="M405,300.8c0,0,0-0.5,0-1.4c0.4-0.4,1.2-0.2,1.4-0.5c0.3-1.1,0-4.4,0.5-5.8c1.5-0.7,6-2.8,6.7-3.4   c0.2,0,0.8,0,1,0c0,0.8,0.1,1.2,0.5,1c1.2-1.2,1.9-2.2,2.9-4.3c0.4,0,0.9,0,1.4,0c0.1,1,0.5-0.5,0.5,1.9c0,0.8-1.1-0.3-1,2   c1.6,1.4-1.8,6.6-3.3,6.6c-2.8,0-2.4,1-5.8,1c0.2,3.1-1.9,3.4-1.9,3.4L405,300.8z"/>
	<path d="M266.3,304.2c0,0.6,0,1.3,0,1.9c0.6,0,1.3,0,1.9,0c0.2,3.3-0.9,1.6-1.9,3.8c2.6,3.2-1.2,7.6-1.9,9.1   c0-0.2-1,0.2-1,0c-0.3-0.3-1.1,0.4-1-4.3c-1.3-2.5-4.2-8.2-4.3-8.6c1-0.7,2.2-1.9,2.9-2.9C262.5,303.9,263.7,304.2,266.3,304.2z"/>
	<path d="M402.6,306.1c1,0,2.2,0.4,2.9,1.4c1.4,2.8,0,8-0.5,10.1c-0.7,4.4-0.2,7.5-2.4,9.1c-1.1,0-1.8,0-2.9,0   c-0.3,0.2-0.5,1.7-1,1.9c-2.7,0.4-4.5,0.6-5.8,1c-1.6,1.6-3.3,3.6-3.8,4.8c-1.2,0.1-4.3,0-4.3,0s-2.4-0.3-2.4-0.5   c0.2,0,0.8-1.4,1-1.4c1.2-0.2,1.8,0.4,3.8-0.5c2.4-1.2,4.2-2.5,5.8-5.3c0-1.4-1.1-1.2-1-2.4c1.2-1.8,5.5-8.3,6.2-10.1   c1-2.5-0.6-3.2,1.4-6.2C400.3,307.1,401.9,306.5,402.6,306.1z"/>
	<path d="M303.7,336.8c-0.7-6.1-5.5-8.8-7.7-13.4c-0.1-0.4-0.1-0.1,0-1c0.8-0.1,1.7-0.5,1.9-1c1.2-0.1,2.2-0.2,2.4,0.5   c2.7,0.1,3.5-0.7,4.3-1.4c4,0.2,3.2-0.6,6.7-0.5c1.8-1.8,2.7-4.3,4.3-5.8c0.9,0,3.4,0.2,3.8-0.5c1.1-0.3,1.6-0.6,2.9-1   c0.4,0.1,2.1,1,1.9,1.9c-0.2,0-0.8,1-1.4,0.9c-2.3,1.3-3.2,1.3-4.3,2.5c0.7,0.6,0.5,0.9,0.5,1.4c-1.1-0.1-2.9,2.1-3.8,2.9   c0.5,1.1,0.4,1.3,0.3,1.9c-2.7,2.8-1.7,7.2-1.7,7.2s-1.7,0.4-2.4,0.5C311.2,334.3,308.5,336.4,303.7,336.8z"/>
	<path d="M283.1,328.7c1.9,0.8,6.5,3.1,5.3,5.3c-1,0.7-1.6,1.7-2.9,2.4c-2.8-0.7-3.6-1.6-4.3-2.4c-0.1-0.8,0-2.1,0-3.8   C282.1,329.6,282.5,329.4,283.1,328.7z"/>
	<path d="M340.2,330.1c0.8,0.1,1.8-0.2,2.4,0c0,0.7,0,1.1,0,1.4c1.4,0.1,3.4,0,5.8,0c0.2-0.9,1-0.9,0.9-1.9   c0,0,0.7,0,1,0c0,0.3,0,0.8,0,1c-1.1,0.8-1,0.8-0.9,1.5c2.5,2.9,1.9,4.7,1.9,8.6c-2,2.7-3.3,6.7-7.7,6.7c-4.2-0.4-5.8-3.3-7.2-5.3   c-0.2-2.3,0.3-3.6-0.5-3.8c0-0.6,0-0.4,0-1.4C339.2,334.8,340.3,334.2,340.2,330.1z"/>
	<path d="M260,344c0,1.1-0.4,1.8-0.5,3.8c-0.3,0.8-1,0.3-1.4,1c-0.7,0.9-0.9,1.3-1,3.4c-0.2,0.3-0.7-0.1-1,0   c-0.7-2.2-1.8-2.5-4.8-2.4c0-0.8,0-1.6,0-2.4c1.4,0,2.9,0,4.3,0c0.9-0.9,1.5-2.1,1.9-3.4C258.1,343.7,259.1,344.1,260,344z"/>
	<path d="M406.4,306.6v-1.5h1v1.4h-1V306.6z"/>
	<circle cx="106.7" cy="319.2" r="4.4"/>
	<circle cx="182.7" cy="344.7" r="4.4"/>
</g>
<g id="circulos">
	<circle cx="31.8" cy="9.4" r="1.3"/>
	<circle cx="52.8" cy="29.4" r="1.3"/>
	<circle cx="17.8" cy="50.4" r="1.3"/>
	<circle cx="40.8" cy="56.4" r="1.3"/>
	<circle cx="102.8" cy="17.4" r="1.3"/>
	<circle cx="109.8" cy="48.4" r="1.3"/>
	<circle cx="137.8" cy="70.4" r="1.3"/>
	<circle cx="165.8" cy="59.4" r="1.3"/>
	<circle cx="164.8" cy="13.4" r="1.3"/>
	<circle cx="187.8" cy="20.4" r="1.3"/>
	<circle cx="198.8" cy="36.4" r="1.3"/>
	<circle cx="205.8" cy="54.4" r="1.3"/>
	<circle cx="217.8" cy="20.4" r="1.3"/>
	<circle cx="228.8" cy="41.4" r="1.3"/>
	<circle cx="264.8" cy="66.4" r="1.3"/>
	<circle cx="202.8" cy="82.4" r="1.3"/>
	<circle cx="298.8" cy="85.4" r="1.3"/>
	<circle cx="253.8" cy="86.4" r="1.3"/>
	<circle cx="319.8" cy="105.4" r="1.3"/>
	<circle cx="345.8" cy="92.4" r="1.3"/>
	<circle cx="363.8" cy="66.4" r="1.3"/>
	<circle cx="279.8" cy="154.4" r="1.3"/>
	<circle cx="247.8" cy="139.4" r="1.3"/>
	<circle cx="271.8" cy="175.4" r="1.3"/>
	<circle cx="215.8" cy="149.4" r="1.3"/>
	<circle cx="268.8" cy="217.4" r="1.3"/>
	<circle cx="224.8" cy="195.4" r="1.3"/>
	<circle cx="248.8" cy="236.4" r="1.3"/>
	<circle cx="204.8" cy="280.4" r="1.3"/>
	<circle cx="165.8" cy="268.4" r="1.3"/>
	<circle cx="161.8" cy="245.4" r="1.3"/>
	<circle cx="139.8" cy="283.4" r="1.3"/>
	<circle cx="127.8" cy="240.4" r="1.3"/>
	<circle cx="87.8" cy="259.4" r="1.3"/>
	<circle cx="79.8" cy="293.4" r="1.3"/>
	<circle cx="57.8" cy="263.4" r="1.3"/>
	<circle cx="60.8" cy="196.4" r="1.3"/>
	<circle cx="81.8" cy="174.4" r="1.3"/>
	<circle cx="157.8" cy="196.4" r="1.3"/>
	<circle cx="154.8" cy="158.4" r="1.3"/>
	<circle cx="164.8" cy="138.4" r="1.3"/>
	<circle cx="179.8" cy="128.4" r="1.3"/>
	<circle cx="149.8" cy="113.4" r="1.3"/>
	<circle cx="132.8" cy="127.4" r="1.3"/>
	<circle cx="104.8" cy="114.4" r="1.3"/>
	<circle cx="134.8" cy="87.4" r="1.3"/>
	<circle cx="102.8" cy="91.4" r="1.3"/>
</g>
<g id="auxiliares">
	<rect x="362.1" y="214.1" class="st1" width="8.2" height="8.2"/>
	<rect x="362.1" y="224.1" class="st2" width="8.2" height="8.2"/>
	<rect x="362.1" y="234.1" class="st3" width="8.2" height="8.2"/>
	<rect x="362.1" y="244.1" class="st4" width="8.2" height="8.2"/>
	<rect x="362.1" y="254.1" class="st5" width="8.2" height="8.2"/>
	<line class="st6" x1="246" y1="353.8" x2="246" y2="298"/>
	<line class="st0" x1="270.1" y1="271.8" x2="246" y2="298"/>
	<line class="st6" x1="428" y1="353.8" x2="428" y2="271.8"/>
	<line class="st0" x1="270.1" y1="271.8" x2="428" y2="271.8"/>
</g>
<g id="textos">
	<text transform="matrix(1 0 0 1 34.7565 10.6328)" class="st7 st8">La Coruña</text>
	<text transform="matrix(1 0 0 1 105.7543 18.6274)" class="st7 st8">Oviedo</text>
	<text transform="matrix(1 0 0 1 55.3001 30.6493)" class="st7 st8">Lugo</text>
	<text transform="matrix(1 0 0 1 20.1388 51.6514)" class="st7 st8">Pontevedra</text>
	<text transform="matrix(1 0 0 1 43.4998 59.3879)" class="st7 st8">Orense</text>
	<text transform="matrix(1 0 0 1 112.4993 50.6513)" class="st7 st8">León</text>
	<text transform="matrix(1 0 0 1 140.7578 71.6327)" class="st7 st8">Palencia</text>
	<text transform="matrix(1 0 0 1 147.7585 20.6276)" class="st7 st8">Santander</text>
	<text transform="matrix(1 0 0 1 137.7575 89.6345)" class="st7 st8">Valladolid</text>
	<text transform="matrix(1 0 0 1 105.7543 93.6349)" class="st7 st8">Zamora</text>
	<text transform="matrix(1 0 0 1 107.7545 116.6372)" class="st7 st8">Salamanca</text>
	<text transform="matrix(1 0 0 1 168.7606 61.6317)" class="st7 st8">Burgos</text>
	<text transform="matrix(1 0 0 1 152.759 115.6371)" class="st7 st8">Segovia</text>
	<text transform="matrix(1 0 0 1 174.7612 26.6282)" class="st7 st8">Bilbao</text>
	<text transform="matrix(1 0 0 1 201.7639 38.6294)" class="st7 st8">Vitoria</text>
	<text transform="matrix(1 0 0 1 205.7559 84.634)" class="st7 st8">Soria</text>
	<text transform="matrix(1 0 0 1 208.7562 57.6313)" class="st7 st8">Logroño</text>
	<text transform="matrix(1 0 0 1 231.7587 43.6299)" class="st7 st8">Pamplona</text>
	<text transform="matrix(1 0 0 1 197.7551 26.6282)" class="st7 st8">San Sebastian</text>
	<text transform="matrix(1 0 0 1 267.7622 68.6324)" class="st7 st8">Huesca</text>
	<text transform="matrix(1 0 0 1 256.7611 90.6346)" class="st7 st8">Zaragoza</text>
	<text transform="matrix(1 0 0 1 167.7521 125.6361)" class="st7 st8">Guadalajara</text>
	<text transform="matrix(1 0 0 1 135.7489 131.6367)" class="st7 st8">Ávila</text>
	<text transform="matrix(1 0 0 1 353.7604 72.6308)" class="st7 st8">Gerona</text>
	<text transform="matrix(1 0 0 1 347.7597 96.6332)" class="st7 st8">Barcelona</text>
	<text transform="matrix(1 0 0 1 301.7552 86.6322)" class="st7 st8">Lérida</text>
	<text transform="matrix(1 0 0 1 322.7572 110.6346)" class="st7 st8">Tarragona</text>
	<text transform="matrix(1 0 0 1 250.75 140.6376)" class="st7 st8">Teruel</text>
	<text transform="matrix(1 0 0 1 216.7466 155.6391)" class="st7 st8">Cuenca</text>
	<text transform="matrix(1 0 0 1 282.7532 157.6354)" class="st7 st8">Castellón</text>
	<text transform="matrix(1 0 0 1 275.7525 177.6374)" class="st7 st8">Valencia</text>
	<text transform="matrix(1 0 0 1 395.7646 166.6362)"><tspan x="0" y="0" class="st7 st8">Palma de</tspan><tspan x="0" y="8.4" class="st7 st8">Mallorca</tspan></text>
	<text transform="matrix(1 0 0 1 272.7521 223.6361)" class="st7 st8">Alicante</text>
	<text transform="matrix(1 0 0 1 241.7491 242.638)" class="st7 st8">Murcia</text>
	<text transform="matrix(1 0 0 1 211.7545 193.6331)" class="st7 st8">Albacete</text>
	<text transform="matrix(1 0 0 1 168.7501 140.6277)" class="st7 st8">Madrid</text>
	<text transform="matrix(1 0 0 1 157.749 160.6297)" class="st7 st8">Toledo</text>
	<text transform="matrix(1 0 0 1 142.7475 203.6341)" class="st7 st8">Ciudad Real</text>
	<text transform="matrix(1 0 0 1 74.7491 171.6309)" class="st7 st8">Cáceres</text>
	<text transform="matrix(1 0 0 1 63.748 198.6336)" class="st7 st8">Badajoz</text>
	<text transform="matrix(1 0 0 1 118.7536 237.6375)" class="st7 st8">Córdoba</text>
	<text transform="matrix(1 0 0 1 165.7582 247.6333)" class="st7 st8">Jaén</text>
	<text transform="matrix(1 0 0 1 91.7508 260.6346)" class="st7 st8">Sevilla</text>
	<text transform="matrix(1 0 0 1 59.7476 264.635)" class="st7 st8">Huelva</text>
	<text transform="matrix(1 0 0 1 82.7499 294.638)" class="st7 st8">Cádiz</text>
	<text transform="matrix(1 0 0 1 133.755 280.6366)" class="st7 st8">Málaga</text>
	<text transform="matrix(1 0 0 1 169.7586 270.6356)" class="st7 st8">Granada</text>
	<text transform="matrix(1 0 0 1 198.7616 277.6363)" class="st7 st8">Almería</text>
	<text transform="matrix(1 0 0 1 112.7529 321.6328)" class="st7 st8">Ceuta</text>
	<text transform="matrix(1 0 0 1 188.7605 337.6343)" class="st7 st8">Melilla</text>
	<text transform="matrix(1 0 0 1 291.7521 306.6312)"><tspan x="0" y="0" class="st7 st8">Santa Cruz de</tspan><tspan x="0" y="8.4" class="st7 st8">Tenerife</tspan></text>
	<text transform="matrix(1 0 0 1 340.7571 318.6325)"><tspan x="0" y="0" class="st7 st8">Las Palmas de</tspan><tspan x="0" y="8.4" class="st7 st8">Gran Canaria</tspan></text>
	<text transform="matrix(1 0 0 1 106.7557 28.6289)" class="st9 st8">Zona I</text>
	<text transform="matrix(1 0 0 1 105.7556 41.6302)" class="st9 st8">Zona II</text>
	<text transform="matrix(1 0 0 1 104.7555 66.6327)" class="st9 st8">Zona III</text>
	<text transform="matrix(1 0 0 1 104.7555 145.6406)" class="st9 st8">Zona IV</text>
	<text transform="matrix(1 0 0 1 104.7555 199.646)" class="st9 st8">Zona V</text>
	<text transform="matrix(1 0 0 1 104.7555 252.6514)" class="st9 st8">Zona V</text>
	<text transform="matrix(1 0 0 1 104.7555 223.6484)" class="st9 st8">Zona IV</text>
	<text transform="matrix(1 0 0 1 104.7555 287.6549)" class="st9 st8">Zona IV</text>
	<text transform="matrix(1 0 0 1 112.7563 329.6591)" class="st9 st8">Zona V</text>
	<text transform="matrix(1 0 0 1 188.764 344.6605)" class="st9 st8">Zona V</text>
	<text transform="matrix(1 0 0 1 335.7573 291.6592)" class="st9 st8">Zona V</text>
	<text transform="matrix(1 0 0 1 374.7614 260.1768)" class="st9 st8">Zona V</text>
	<text transform="matrix(1 0 0 1 374.7614 250.1758)" class="st9 st8">Zona IV</text>
	<text transform="matrix(1 0 0 1 374.7614 240.1747)" class="st9 st8">Zona III</text>
	<text transform="matrix(1 0 0 1 374.7614 230.1737)" class="st9 st8">Zona II</text>
	<text transform="matrix(1 0 0 1 374.7614 220.1727)" class="st9 st8">Zona I</text>
	<text transform="matrix(1 0 0 1 337.7576 179.1685)" class="st9 st8">Zona IV</text>
	<text transform="matrix(1 0 0 1 269.7523 102.1641)" class="st9 st8">Zona IV</text>
	<text transform="matrix(1 0 0 1 217.7522 143.1658)" class="st9 st8">Zona II</text>
	<text transform="matrix(1 0 0 1 218.7523 206.1629)" class="st9 st8">Zona V</text>
</g>
</svg>